name analog
datacolumns 19
datarows 37
range 0.468 0.486
endheader
time	ground_force_vx	ground_force_vy	ground_force_vz	ground_force_px	ground_force_py	ground_force_pz	l_ground_force_vx	l_ground_force_vy	l_ground_force_vz	l_ground_force_px	l_ground_force_py	l_ground_force_pz	ground_torque_x	ground_torque_y	ground_torque_z	l_ground_torque_x	l_ground_torque_y	l_ground_torque_z
0.468	-0.0	-0.0	-0.0	-9.227617263793944	-2.331174612045288	-798.9925537109375	-0.0	-0.0	-0.0	-34.65925979614258	16.260786056518555	76.20966339111328	-0.0	-0.0	-0.0	-0.0	-0.0	-0.0
0.4685	-0.0	-0.0	-0.0	-9.291576385498049	-1.3506271839141846	-795.6602172851562	-0.0	-0.0	-0.0	-35.069183349609375	16.13006019592285	76.4023666381836	-0.0	-0.0	-0.0	-0.0	-0.0	-0.0
0.46900000000000003	-0.0	-0.0	-0.0	-10.286349296569824	0.3720054030418396	-794.6549072265625	-0.0	-0.0	-0.0	-35.13179016113281	16.258970260620117	76.7067642211914	-0.0	-0.0	-0.0	-0.0	-0.0	-0.0
0.46950000000000003	-0.0	-0.0	-0.0	-10.230514526367188	1.0073785781860352	-791.8828125	-0.0	-0.0	-0.0	-34.838966369628906	16.38775634765625	76.507568359375	-0.0	-0.0	-0.0	-0.0	-0.0	-0.0
0.47000000000000003	-0.0	-0.0	-0.0	-11.114143371582031	2.012861728668213	-789.6044311523438	-0.0	-0.0	-0.0	-34.96591567993164	16.310100555419922	76.20504760742188	-0.0	-0.0	-0.0	-0.0	-0.0	-0.0
0.47050000000000003	-0.0	-0.0	-0.0	-11.801101684570312	2.560712575912476	-785.419677734375	-0.0	-0.0	-0.0	-34.83732986450195	16.181468963623047	75.70567321777344	-0.0	-0.0	-0.0	-0.0	-0.0	-0.0
0.47100000000000003	-0.0	-0.0	-0.0	-12.425612449645996	3.374770164489746	-783.1485595703125	-0.0	-0.0	-0.0	-34.914329528808594	16.503067016601562	75.85528564453125	-0.0	-0.0	-0.0	-0.0	-0.0	-0.0
0.47150000000000003	-0.0	-0.0	-0.0	-11.954208374023438	3.808038234710693	-780.0191650390625	-0.0	-0.0	-0.0	-34.82489776611328	16.104564666748047	76.45755767822266	-0.0	-0.0	-0.0	-0.0	-0.0	-0.0
0.47200000000000003	-0.0	-0.0	-0.0	-12.06831169128418	4.265824317932129	-776.39013671875	-0.0	-0.0	-0.0	-34.837623596191406	16.168588638305664	75.8554458618164	-0.0	-0.0	-0.0	-0.0	-0.0	-0.0
0.47250000000000003	-0.0	-0.0	-0.0	-12.38766384124756	4.341702938079834	-772.7068481445312	-0.0	-0.0	-0.0	-34.875755310058594	15.937749862670898	75.20429992675781	-0.0	-0.0	-0.0	-0.0	-0.0	-0.0
0.47300000000000003	-0.0	-0.0	-0.0	-12.323844909667969	4.621997833251953	-769.679931640625	-0.0	-0.0	-0.0	-34.82499313354492	16.52861976623535	75.8056640625	-0.0	-0.0	-0.0	-0.0	-0.0	-0.0
0.47350000000000003	-0.0	-0.0	-0.0	-12.731446266174316	4.59662389755249	-765.7945556640625	-0.0	-0.0	-0.0	-35.00307083129883	16.310335159301758	76.25737762451172	-0.0	-0.0	-0.0	-0.0	-0.0	-0.0
0.47400000000000003	-0.0	-0.0	-0.0	-11.788355827331545	4.316340923309326	-762.21533203125	-0.0	-0.0	-0.0	-34.86307907104492	16.129283905029297	75.103759765625	-0.0	-0.0	-0.0	-0.0	-0.0	-0.0
0.47450000000000003	-0.0	-0.0	-0.0	-11.469510078430176	4.914658069610596	-760.5966186523438	-0.0	-0.0	-0.0	-34.799346923828125	16.002307891845703	75.45985412597656	-0.0	-0.0	-0.0	-0.0	-0.0	-0.0
0.47500000000000003	-0.0	-0.0	-0.0	-11.062103271484377	4.45736026763916	-758.7808837890625	-0.0	-0.0	-0.0	-34.63253402709961	16.15801239013672	75.70450592041016	-0.0	-0.0	-0.0	-0.0	-0.0	-0.0
0.47550000000000003	-0.0	-0.0	-0.0	-11.788058280944824	3.642086744308472	-758.27734375	-0.0	-0.0	-0.0	-34.62042999267578	16.040565490722656	76.10235595703125	-0.0	-0.0	-0.0	-0.0	-0.0	-0.0
0.47600000000000003	-0.0	-0.0	-0.0	-11.789260864257812	2.636077642440796	-757.7742309570312	-0.0	-0.0	-0.0	-34.78541564941406	16.206520080566406	75.55611419677734	-0.0	-0.0	-0.0	-0.0	-0.0	-0.0
0.47650000000000003	-0.0	-0.0	-0.0	-11.700201034545898	1.9110360145568848	-757.3134765625	-0.0	-0.0	-0.0	-34.92649459838867	16.642093658447266	74.65126037597656	-0.0	-0.0	-0.0	-0.0	-0.0	-0.0
0.47700000000000004	-0.0	-0.0	-0.0	-12.015869140625	1.6420310735702517	-759.7919921875	-0.0	-0.0	-0.0	-34.94064712524414	15.91031265258789	75.26128387451172	-0.0	-0.0	-0.0	-0.0	-0.0	-0.0
0.47750000000000004	-0.0	-0.0	-0.0	-12.770989418029783	1.4142093658447266	-759.3369140625	-0.0	-0.0	-0.0	-34.92636489868164	16.220632553100586	75.89673614501953	-0.0	-0.0	-0.0	-0.0	-0.0	-0.0
0.47800000000000004	-0.0	-0.0	-0.0	-13.482573509216309	1.18448007106781	-755.860595703125	-0.0	-0.0	-0.0	-34.69837951660156	16.28151512145996	75.74886322021484	-0.0	-0.0	-0.0	-0.0	-0.0	-0.0
0.47850000000000004	-0.0	-0.0	-0.0	-14.271183013916016	1.170358180999756	-759.439208984375	-0.0	-0.0	-0.0	-34.72127914428711	16.104564666748047	76.04183197021484	-0.0	-0.0	-0.0	-0.0	-0.0	-0.0
0.47900000000000004	-0.0	-0.0	-0.0	-14.35133171081543	1.4634965658187866	-758.5280151367188	-0.0	-0.0	-0.0	-34.63170623779297	16.310712814331055	75.6011962890625	-0.0	-0.0	-0.0	-0.0	-0.0	-0.0
0.47950000000000004	-0.0	-0.0	-0.0	-14.984429359436035	1.4002015590667725	-758.2318725585938	-0.0	-0.0	-0.0	-34.67259979248047	16.078330993652344	75.20609283447266	-0.0	-0.0	-0.0	-0.0	-0.0	-0.0
0.48	-0.0	-0.0	-0.0	-14.23956298828125	1.2364628314971924	-757.1150512695312	-0.0	-0.0	-0.0	-34.88880157470703	16.067138671875	75.65967559814453	-0.0	-0.0	-0.0	-0.0	-0.0	-0.0
0.4805	-0.0	-0.0	-0.0	-14.340372085571287	1.9383692741394043	-755.760498046875	-0.0	-0.0	-0.0	-34.82550430297852	15.7973051071167	74.65017700195312	-0.0	-0.0	-0.0	-0.0	-0.0	-0.0
0.481	-0.0	-0.0	-0.0	-13.753214836120604	2.280216693878174	-753.1854858398438	-0.0	-0.0	-0.0	-34.6466064453125	16.236204147338867	75.29216766357422	-0.0	-0.0	-0.0	-0.0	-0.0	-0.0
0.4815	-0.0	-0.0	-0.0	-13.712379455566406	3.2308590412139893	-751.6260986328125	-0.0	-0.0	-0.0	-35.01528549194336	15.865644454956056	75.83003997802734	-0.0	-0.0	-0.0	-0.0	-0.0	-0.0
0.482	-0.0	-0.0	-0.0	-12.976698875427246	4.504512310028076	-750.5509033203125	-0.0	-0.0	-0.0	-34.63112258911133	16.078161239624023	76.34353637695312	-0.0	-0.0	-0.0	-0.0	-0.0	-0.0
0.4825	-0.0	-0.0	-0.0	-12.70920181274414	5.600023746490479	-746.8892211914062	-0.0	-0.0	-0.0	-34.95198059082031	16.08321189880371	75.93060302734375	-0.0	-0.0	-0.0	-0.0	-0.0	-0.0
0.483	-0.0	-0.0	-0.0	-12.300264358520508	7.073629379272461	-746.3726806640625	-0.0	-0.0	-0.0	-34.67306900024414	16.348005294799805	75.95011901855469	-0.0	-0.0	-0.0	-0.0	-0.0	-0.0
0.4835	-0.0	-0.0	-0.0	-11.628379821777344	8.63498592376709	-744.357421875	-0.0	-0.0	-0.0	-34.646785736083984	16.104564666748047	75.76490783691406	-0.0	-0.0	-0.0	-0.0	-0.0	-0.0
0.484	-0.0	-0.0	-0.0	-11.68657684326172	9.951422691345217	-740.7640380859375	-0.0	-0.0	-0.0	-34.87849044799805	16.368690490722656	76.11614990234375	-0.0	-0.0	-0.0	-0.0	-0.0	-0.0
0.4845	-0.0	-0.0	-0.0	-11.72330379486084	10.706124305725098	-739.3510131835938	-0.0	-0.0	-0.0	-34.63664245605469	16.104564666748047	76.27667999267578	-0.0	-0.0	-0.0	-0.0	-0.0	-0.0
0.485	-0.0	-0.0	-0.0	-12.04895305633545	10.926420211791992	-736.6512451171875	-0.0	-0.0	-0.0	-34.951805114746094	16.34786605834961	75.88481903076172	-0.0	-0.0	-0.0	-0.0	-0.0	-0.0
0.4855	-0.0	-0.0	-0.0	-12.615280151367188	10.926474571228027	-736.6292114257812	-0.0	-0.0	-0.0	-34.789337158203125	16.05780029296875	75.3761978149414	-0.0	-0.0	-0.0	-0.0	-0.0	-0.0
0.486	-0.0	-0.0	-0.0	-12.757102966308594	10.412123680114746	-733.9718017578125	-0.0	-0.0	-0.0	-34.68336868286133	16.194534301757812	75.8056640625	-0.0	-0.0	-0.0	-0.0	-0.0	-0.0
